<svg width="248" height="241" viewBox="0 0 248 241" fill="none" xmlns="http://www.w3.org/2000/svg">
<g clip-path="url(#clip0)">
<line x1="220.574" y1="35.3959" x2="247" y2="35.3959" stroke="white" stroke-width="2" stroke-linecap="round"/>
<line x1="220.574" y1="43.2653" x2="231.317" y2="43.2653" stroke="white" stroke-width="2" stroke-linecap="round"/>
<line x1="52" y1="17.6735" x2="81.3267" y2="17.6735" stroke="white" stroke-width="4" stroke-linecap="round"/>
<line x1="175.505" y1="239" x2="245.02" y2="239" stroke="white" stroke-width="4" stroke-linecap="round"/>
<line x1="215.693" y1="215.392" x2="245.02" y2="215.392" stroke="white" stroke-width="4" stroke-linecap="round"/>
<line x1="220.574" y1="79.6613" x2="247" y2="79.6613" stroke="white" stroke-width="2" stroke-linecap="round"/>
<line x1="220.574" y1="87.5306" x2="231.317" y2="87.5306" stroke="white" stroke-width="2" stroke-linecap="round"/>
<line x1="220.574" y1="107.204" x2="247" y2="107.204" stroke="white" stroke-width="2" stroke-linecap="round"/>
<line x1="220.574" y1="115.073" x2="231.317" y2="115.073" stroke="white" stroke-width="2" stroke-linecap="round"/>
</g>
<circle cx="9.04703" cy="142.777" r="8.95328" fill="white"/>
<circle cx="71.1933" cy="96.9573" r="8.95328" fill="white"/>
<circle cx="132.286" cy="132.77" r="8.95328" fill="white"/>
<circle cx="192.326" cy="110.651" r="8.95328" fill="white"/>
<circle cx="132.286" cy="64.3041" r="8.95328" fill="white" fill-opacity="0.5"/>
<circle cx="192.326" cy="83.2641" r="5.26664" fill="white" fill-opacity="0.5"/>
<circle cx="192.326" cy="154.89" r="5.26664" fill="white" fill-opacity="0.5"/>
<circle cx="133.339" cy="168.057" r="5.26664" fill="white" fill-opacity="0.5"/>
<circle cx="133.339" cy="212.823" r="5.26664" fill="white" fill-opacity="0.5"/>
<circle cx="73.2998" cy="188.07" r="5.26664" fill="white" fill-opacity="0.5"/>
<circle cx="192.326" cy="39.5509" r="8.95328" fill="white" fill-opacity="0.5"/>
<path d="M58.0332 105.316L46.5952 106.899L53.685 116.013L58.0332 105.316ZM23.3542 133.56L51.5434 111.631L50.3154 110.053L22.1262 131.981L23.3542 133.56Z" fill="white"/>
<path d="M58.0332 179.711L46.5462 178.536L53.3077 169.176L58.0332 179.711ZM22.7992 153.026L51.3231 173.631L50.152 175.252L21.6281 154.648L22.7992 153.026Z" fill="white" fill-opacity="0.5"/>
<path d="M117.114 67.3256L105.579 67.8584L111.808 77.5814L117.114 67.3256ZM83.9467 89.7609L110.075 73.0225L108.996 71.3384L82.8678 88.0768L83.9467 89.7609Z" fill="white" fill-opacity="0.5"/>
<path d="M117.114 128.169L105.579 127.636L111.808 117.913L117.114 128.169ZM83.9467 105.734L110.075 122.472L108.996 124.156L82.8678 107.418L83.9467 105.734Z" fill="white"/>
<path d="M177.266 41.4589L165.798 40.1152L170.369 50.7191L177.266 41.4589ZM147.116 55.5438L169.397 45.9397L168.606 44.103L146.324 53.7072L147.116 55.5438Z" fill="white" fill-opacity="0.5"/>
<path d="M177.266 81.8829L165.798 83.2266L170.369 72.6227L177.266 81.8829ZM147.116 67.798L169.397 77.4021L168.606 79.2388L146.324 69.6346L147.116 67.798Z" fill="white" fill-opacity="0.5"/>
<path d="M177.266 112.559L165.798 111.215L170.369 121.819L177.266 112.559ZM147.116 126.643L169.397 117.039L168.606 115.203L146.324 124.807L147.116 126.643Z" fill="white"/>
<path d="M177.266 152.983L165.798 154.326L170.369 143.722L177.266 152.983ZM147.116 138.898L169.397 148.502L168.606 150.338L146.324 140.734L147.116 138.898Z" fill="white" fill-opacity="0.5"/>
<path d="M118.28 169.965L106.812 168.621L111.382 179.225L118.28 169.965ZM88.1297 184.05L110.411 174.446L109.62 172.609L87.3381 182.213L88.1297 184.05Z" fill="white" fill-opacity="0.5"/>
<path d="M118.28 210.389L106.812 211.733L111.382 201.129L118.28 210.389ZM88.1297 196.304L110.411 205.908L109.62 207.745L87.3381 198.141L88.1297 196.304Z" fill="white" fill-opacity="0.5"/>
<path d="M74.6407 74.1165L74.6411 74.116C74.863 73.8942 74.9876 73.5933 74.9876 73.2795C74.9876 72.9657 74.863 72.6648 74.6411 72.4429C74.4193 72.2211 74.1184 72.0964 73.8046 72.0964C73.4908 72.0964 73.1899 72.2211 72.968 72.4429L72.9676 72.4434L70.4032 75.0137L67.8388 72.4434L67.8384 72.4429C67.6165 72.2211 67.3156 72.0964 67.0018 72.0964C66.6881 72.0964 66.3872 72.2211 66.1653 72.4429C65.9434 72.6648 65.8188 72.9657 65.8188 73.2795C65.8188 73.5933 65.9434 73.8942 66.1653 74.116L66.1657 74.1165L68.7361 76.6809L66.1668 79.2442C66.1665 79.2445 66.1663 79.2447 66.1661 79.2449C66.0558 79.3545 65.9682 79.4848 65.9084 79.6283C65.8485 79.7722 65.8176 79.9264 65.8176 80.0822C65.8176 80.238 65.8485 80.3923 65.9084 80.5361C65.9681 80.6793 66.0554 80.8094 66.1653 80.9188C66.2747 81.0287 66.4047 81.116 66.5479 81.1757C66.6918 81.2356 66.846 81.2665 67.0018 81.2665C67.1577 81.2665 67.3119 81.2356 67.4557 81.1757C67.5993 81.1159 67.7297 81.0283 67.8392 80.9179C67.8394 80.9177 67.8396 80.9175 67.8398 80.9173L70.4032 78.348L72.9666 80.9173C72.9668 80.9175 72.9669 80.9177 72.9671 80.9179C73.0767 81.0282 73.2071 81.1159 73.3507 81.1757C73.4945 81.2356 73.6488 81.2665 73.8046 81.2665C73.9604 81.2665 74.1147 81.2356 74.2585 81.1757C74.4016 81.116 74.5316 81.0288 74.641 80.9189C74.751 80.8094 74.8384 80.6794 74.898 80.5361C74.958 80.3923 74.9888 80.238 74.9888 80.0822C74.9888 79.9264 74.958 79.7722 74.898 79.6283C74.8382 79.4847 74.7506 79.3544 74.6402 79.2448C74.64 79.2446 74.6399 79.2444 74.6397 79.2442L72.0703 76.6809L74.6407 74.1165Z" fill="white" stroke="white"/>
<defs>
<clipPath id="clip0">
<rect width="198" height="241" fill="white" transform="translate(50)"/>
</clipPath>
</defs>
</svg>
